<svg width="22" height="22" viewBox="0 0 22 22" fill="none" xmlns="http://www.w3.org/2000/svg">
<path d="M14.85 6.60005H11L9.12675 3.78955C8.92325 3.48375 8.57895 3.30005 8.21155 3.30005H4.95005C4.03925 3.30005 3.30005 4.03925 3.30005 4.95005V15.4C3.30005 16.2591 3.62895 17.0401 4.16795 17.6275C3.88855 17.1655 3.76645 16.6034 3.89515 16.0226L5.11725 10.5226C5.34055 9.51615 6.23375 8.80005 7.26445 8.80005H16.5V8.25005C16.5 7.33925 15.7608 6.60005 14.85 6.60005Z" fill="#757575" stroke="#757575" stroke-width="2.44444" stroke-linecap="round" stroke-linejoin="round"/>
<path d="M15.445 18.7H6.04216C4.63526 18.7 3.58916 17.3965 3.89496 16.0226L5.11706 10.5226C5.34036 9.51615 6.23356 8.80005 7.26426 8.80005H16.6671C18.074 8.80005 19.1201 10.1035 18.8143 11.4774L17.5922 16.9774C17.3689 17.9839 16.4757 18.7 15.445 18.7Z" stroke="#757575" stroke-width="2.44444" stroke-linecap="round" stroke-linejoin="round"/>
</svg>
