<svg width="16" height="16" viewBox="0 0 16 16" fill="none" xmlns="http://www.w3.org/2000/svg">
<path d="M2.3999 4.7998H7.9999" stroke="#757575" stroke-width="1.6" stroke-linecap="round" stroke-linejoin="round"/>
<path d="M10 6.7998C11.1046 6.7998 12 5.90437 12 4.7998C12 3.69524 11.1046 2.7998 10 2.7998C8.89543 2.7998 8 3.69524 8 4.7998C8 5.90437 8.89543 6.7998 10 6.7998Z" stroke="#757575" stroke-width="1.6" stroke-linecap="round" stroke-linejoin="round"/>
<path d="M12 4.7998H13.6" stroke="#757575" stroke-width="1.6" stroke-linecap="round" stroke-linejoin="round"/>
<path d="M13.6 11.2002H8" stroke="#757575" stroke-width="1.6" stroke-linecap="round" stroke-linejoin="round"/>
<path d="M6 13.2002C7.10457 13.2002 8 12.3048 8 11.2002C8 10.0956 7.10457 9.2002 6 9.2002C4.89543 9.2002 4 10.0956 4 11.2002C4 12.3048 4.89543 13.2002 6 13.2002Z" stroke="#757575" stroke-width="1.6" stroke-linecap="round" stroke-linejoin="round"/>
<path d="M3.9999 11.2002H2.3999" stroke="#757575" stroke-width="1.6" stroke-linecap="round" stroke-linejoin="round"/>
</svg>
