<svg width="23" height="23" viewBox="0 0 23 23" fill="none" xmlns="http://www.w3.org/2000/svg">
<path d="M2.5537 9.78784V6.21516C2.5537 4.89922 3.68159 3.83337 5.07411 3.83337H7.53278C8.29772 3.83337 9.01982 4.16087 9.4987 4.72416L10.2586 5.61972H17.0461C18.4386 5.61972 19.5665 6.68557 19.5665 8.0015V9.78784" stroke="#FF782F" stroke-width="1.80932" stroke-linecap="round" stroke-linejoin="round"/>
<path d="M3.15882 10.298H18.9601C20.197 10.298 21.0965 11.4632 20.7778 12.651L19.3967 17.8023C19.1044 18.8952 18.1096 19.655 16.973 19.655H5.14716C4.01061 19.655 3.01582 18.8952 2.72352 17.8023L1.34236 12.651C1.02372 11.4632 1.92443 10.298 3.16008 10.298H3.15882Z" stroke="#FF782F" stroke-width="1.80932" stroke-linecap="round" stroke-linejoin="round"/>
</svg>
