<svg width="23" height="23" viewBox="0 0 23 23" fill="none" xmlns="http://www.w3.org/2000/svg">
<path d="M3.2763 10.0912V6.4365C3.2763 5.09033 4.36664 4 5.71282 4H8.08965C8.82914 4 9.5272 4.33502 9.99014 4.91125L10.7248 5.82737H17.2863C18.6325 5.82737 19.7228 6.9177 19.7228 8.26387V10.0912" stroke="#757575" stroke-width="1.82" stroke-linecap="round" stroke-linejoin="round"/>
<path d="M3.82676 10.0914H19.172C20.3732 10.0914 21.2467 11.2293 20.9373 12.389L19.5959 17.4192C19.3121 18.4864 18.346 19.2283 17.2423 19.2283H5.7577C4.65396 19.2283 3.68787 18.4864 3.40402 17.4192L2.06271 12.389C1.75327 11.2293 2.62799 10.0914 3.82797 10.0914H3.82676Z" stroke="#757575" stroke-width="1.82" stroke-linecap="round" stroke-linejoin="round"/>
</svg>
