<svg width="24" height="24" viewBox="0 0 24 24" fill="none" xmlns="http://www.w3.org/2000/svg">
<rect width="24" height="24" rx="6" fill="#1F1F1F"/>
<rect width="24" height="24" rx="6" fill="url(#paint0_linear_933_5581)" fill-opacity="0.24"/>
<g clip-path="url(#clip0_933_5581)">
<path d="M13.9048 16.7619H10.0952V20.0952C10.0952 20.2876 10.2114 20.4619 10.3895 20.5352C10.5676 20.6105 10.7714 20.5686 10.9086 20.4324L12 19.341L13.0914 20.4324C13.1829 20.5238 13.3048 20.5714 13.4286 20.5714C13.4895 20.5714 13.5524 20.56 13.6105 20.5352C13.7886 20.4619 13.9048 20.2876 13.9048 20.0952V16.7619Z" fill="white"/>
<path d="M13.9048 16.7619H10.0952V20.0952C10.0952 20.2876 10.2114 20.4619 10.3895 20.5352C10.5676 20.6105 10.7714 20.5686 10.9086 20.4324L12 19.341L13.0914 20.4324C13.1829 20.5238 13.3048 20.5714 13.4286 20.5714C13.4895 20.5714 13.5524 20.56 13.6105 20.5352C13.7886 20.4619 13.9048 20.2876 13.9048 20.0952V16.7619Z" fill="url(#paint1_linear_933_5581)" fill-opacity="0.09"/>
<path d="M18.661 15.0952H18.6667V5.57143C18.6667 5.17715 18.3467 4.85715 17.9524 4.85715H7.95238C6.50762 4.85715 5.33333 6.03143 5.33333 7.4762V16.7619C5.33333 18.0743 6.40191 19.1429 7.71429 19.1429H8.42857C8.82286 19.1429 9.14286 18.8229 9.14286 18.4286C9.14286 18.0343 8.82286 17.7143 8.42857 17.7143H7.71429C7.18952 17.7143 6.76191 17.2867 6.76191 16.7619C6.76191 16.2371 7.18952 15.8095 7.71429 15.8095H16.8629C16.7152 16.4086 16.6971 17.0848 16.8495 17.7143H15.5714C15.1771 17.7143 14.8571 18.0343 14.8571 18.4286C14.8571 18.8229 15.1771 19.1429 15.5714 19.1429H17.9524C18.2248 19.1429 18.4733 18.9876 18.5933 18.7438C18.7133 18.5 18.6848 18.2086 18.5181 17.9924C18.02 17.3457 18.1048 16.0752 18.521 15.5267C18.6171 15.4 18.66 15.2476 18.66 15.0943L18.661 15.0952ZM8.90476 13.4286C8.51048 13.4286 8.19048 13.1086 8.19048 12.7143C8.19048 12.32 8.51048 12 8.90476 12C9.29905 12 9.61905 12.32 9.61905 12.7143C9.61905 13.1086 9.29905 13.4286 8.90476 13.4286ZM8.90476 11.0476C8.51048 11.0476 8.19048 10.7276 8.19048 10.3333C8.19048 9.93905 8.51048 9.61905 8.90476 9.61905C9.29905 9.61905 9.61905 9.93905 9.61905 10.3333C9.61905 10.7276 9.29905 11.0476 8.90476 11.0476ZM8.90476 8.66667C8.51048 8.66667 8.19048 8.34667 8.19048 7.95239C8.19048 7.5581 8.51048 7.2381 8.90476 7.2381C9.29905 7.2381 9.61905 7.5581 9.61905 7.95239C9.61905 8.34667 9.29905 8.66667 8.90476 8.66667Z" fill="white"/>
<path d="M18.661 15.0952H18.6667V5.57143C18.6667 5.17715 18.3467 4.85715 17.9524 4.85715H7.95238C6.50762 4.85715 5.33333 6.03143 5.33333 7.4762V16.7619C5.33333 18.0743 6.40191 19.1429 7.71429 19.1429H8.42857C8.82286 19.1429 9.14286 18.8229 9.14286 18.4286C9.14286 18.0343 8.82286 17.7143 8.42857 17.7143H7.71429C7.18952 17.7143 6.76191 17.2867 6.76191 16.7619C6.76191 16.2371 7.18952 15.8095 7.71429 15.8095H16.8629C16.7152 16.4086 16.6971 17.0848 16.8495 17.7143H15.5714C15.1771 17.7143 14.8571 18.0343 14.8571 18.4286C14.8571 18.8229 15.1771 19.1429 15.5714 19.1429H17.9524C18.2248 19.1429 18.4733 18.9876 18.5933 18.7438C18.7133 18.5 18.6848 18.2086 18.5181 17.9924C18.02 17.3457 18.1048 16.0752 18.521 15.5267C18.6171 15.4 18.66 15.2476 18.66 15.0943L18.661 15.0952ZM8.90476 13.4286C8.51048 13.4286 8.19048 13.1086 8.19048 12.7143C8.19048 12.32 8.51048 12 8.90476 12C9.29905 12 9.61905 12.32 9.61905 12.7143C9.61905 13.1086 9.29905 13.4286 8.90476 13.4286ZM8.90476 11.0476C8.51048 11.0476 8.19048 10.7276 8.19048 10.3333C8.19048 9.93905 8.51048 9.61905 8.90476 9.61905C9.29905 9.61905 9.61905 9.93905 9.61905 10.3333C9.61905 10.7276 9.29905 11.0476 8.90476 11.0476ZM8.90476 8.66667C8.51048 8.66667 8.19048 8.34667 8.19048 7.95239C8.19048 7.5581 8.51048 7.2381 8.90476 7.2381C9.29905 7.2381 9.61905 7.5581 9.61905 7.95239C9.61905 8.34667 9.29905 8.66667 8.90476 8.66667Z" fill="url(#paint2_linear_933_5581)" fill-opacity="0.09"/>
</g>
<defs>
<linearGradient id="paint0_linear_933_5581" x1="12" y1="3" x2="12" y2="24" gradientUnits="userSpaceOnUse">
<stop stop-color="white"/>
<stop offset="1"/>
</linearGradient>
<linearGradient id="paint1_linear_933_5581" x1="12" y1="18.7016" x2="12" y2="16.5195" gradientUnits="userSpaceOnUse">
<stop stop-opacity="0"/>
<stop offset="1"/>
</linearGradient>
<linearGradient id="paint2_linear_933_5581" x1="12" y1="12.1295" x2="12" y2="3.94814" gradientUnits="userSpaceOnUse">
<stop stop-opacity="0"/>
<stop offset="1"/>
</linearGradient>
<clipPath id="clip0_933_5581">
<rect width="17.1429" height="17.1429" fill="white" transform="translate(3.42857 3.42857)"/>
</clipPath>
</defs>
</svg>
