<svg width="24" height="24" viewBox="0 0 24 24" fill="none" xmlns="http://www.w3.org/2000/svg">
<rect width="24" height="24" rx="5" fill="#1F1F1F"/>
<path d="M8.75879 17V6.81445H12.833C13.5986 6.81445 14.2594 6.95117 14.8154 7.22461C15.376 7.49349 15.8066 7.87858 16.1074 8.37988C16.4128 8.88118 16.5654 9.47363 16.5654 10.1572C16.5654 10.8317 16.4036 11.415 16.0801 11.9072C15.7611 12.3994 15.3167 12.7777 14.7471 13.042L16.791 17H14.5352L12.7305 13.4385C12.7259 13.4385 12.7191 13.4385 12.71 13.4385H10.8643V17H8.75879ZM10.8643 11.75H12.71C13.266 11.75 13.7035 11.6064 14.0225 11.3193C14.346 11.0277 14.5078 10.6403 14.5078 10.1572C14.5078 9.6696 14.346 9.28223 14.0225 8.99512C13.6989 8.70801 13.2591 8.56445 12.7031 8.56445H10.8643V11.75Z" fill="white"/>
</svg>
